<mxfile host="app.diagrams.net" agent="Mozilla/5.0 (X11; Linux x86_64) AppleWebKit/537.36 (KHTML, like Gecko) Chrome/128.0.0.0 Safari/537.36" version="24.7.14">
  <diagram name="Page-1" id="Bf9qOJsrXY_zEq10vf4p">
    <mxGraphModel dx="3217" dy="1325" grid="1" gridSize="10" guides="1" tooltips="1" connect="1" arrows="1" fold="1" page="1" pageScale="1" pageWidth="827" pageHeight="1169" background="#ffffff" math="0" shadow="0">
      <root>
        <mxCell id="0" />
        <mxCell id="1" parent="0" />
        <mxCell id="s_h71yhUyFhdzkxMhqhq-367" value="" style="rounded=0;whiteSpace=wrap;html=1;" vertex="1" parent="1">
          <mxGeometry x="-820" y="10" width="1630" height="820" as="geometry" />
        </mxCell>
        <mxCell id="s_h71yhUyFhdzkxMhqhq-356" value="" style="rounded=0;whiteSpace=wrap;html=1;" vertex="1" parent="1">
          <mxGeometry x="-720" y="470" width="470" height="320" as="geometry" />
        </mxCell>
        <mxCell id="s_h71yhUyFhdzkxMhqhq-336" value="Search" style="html=1;whiteSpace=wrap;strokeColor=none;fillColor=#0079D6;labelPosition=center;verticalLabelPosition=middle;verticalAlign=top;align=center;fontSize=12;outlineConnect=0;spacingTop=-6;fontColor=#FFFFFF;sketch=0;shape=mxgraph.sitemap.search;" vertex="1" parent="1">
          <mxGeometry x="-385" y="519" width="120" height="70" as="geometry" />
        </mxCell>
        <mxCell id="s_h71yhUyFhdzkxMhqhq-338" value="Home" style="html=1;whiteSpace=wrap;strokeColor=none;fillColor=#0079D6;labelPosition=center;verticalLabelPosition=middle;verticalAlign=top;align=center;fontSize=12;outlineConnect=0;spacingTop=-6;fontColor=#FFFFFF;sketch=0;shape=mxgraph.sitemap.home;" vertex="1" parent="1">
          <mxGeometry x="-540" y="700" width="120" height="70" as="geometry" />
        </mxCell>
        <mxCell id="s_h71yhUyFhdzkxMhqhq-339" value="Post" style="html=1;whiteSpace=wrap;strokeColor=none;fillColor=#0079D6;labelPosition=center;verticalLabelPosition=middle;verticalAlign=top;align=center;fontSize=12;outlineConnect=0;spacingTop=-6;fontColor=#FFFFFF;sketch=0;shape=mxgraph.sitemap.post;" vertex="1" parent="1">
          <mxGeometry x="-540" y="519" width="120" height="70" as="geometry" />
        </mxCell>
        <mxCell id="s_h71yhUyFhdzkxMhqhq-340" value="News" style="html=1;whiteSpace=wrap;strokeColor=none;fillColor=#0079D6;labelPosition=center;verticalLabelPosition=middle;verticalAlign=top;align=center;fontSize=12;outlineConnect=0;spacingTop=-6;fontColor=#FFFFFF;sketch=0;shape=mxgraph.sitemap.news;" vertex="1" parent="1">
          <mxGeometry x="-700" y="519" width="120" height="70" as="geometry" />
        </mxCell>
        <mxCell id="s_h71yhUyFhdzkxMhqhq-341" style="edgeStyle=orthogonalEdgeStyle;rounded=0;orthogonalLoop=1;jettySize=auto;html=1;exitX=0.5;exitY=0;exitDx=0;exitDy=0;exitPerimeter=0;entryX=0.5;entryY=1;entryDx=0;entryDy=0;entryPerimeter=0;" edge="1" parent="1" source="s_h71yhUyFhdzkxMhqhq-338" target="s_h71yhUyFhdzkxMhqhq-340">
          <mxGeometry relative="1" as="geometry" />
        </mxCell>
        <mxCell id="s_h71yhUyFhdzkxMhqhq-342" style="edgeStyle=orthogonalEdgeStyle;rounded=0;orthogonalLoop=1;jettySize=auto;html=1;exitX=0.5;exitY=0;exitDx=0;exitDy=0;exitPerimeter=0;entryX=0.5;entryY=1;entryDx=0;entryDy=0;entryPerimeter=0;" edge="1" parent="1" source="s_h71yhUyFhdzkxMhqhq-338" target="s_h71yhUyFhdzkxMhqhq-339">
          <mxGeometry relative="1" as="geometry" />
        </mxCell>
        <mxCell id="s_h71yhUyFhdzkxMhqhq-343" style="edgeStyle=orthogonalEdgeStyle;rounded=0;orthogonalLoop=1;jettySize=auto;html=1;exitX=0.5;exitY=0;exitDx=0;exitDy=0;exitPerimeter=0;entryX=0.5;entryY=1;entryDx=0;entryDy=0;entryPerimeter=0;" edge="1" parent="1" source="s_h71yhUyFhdzkxMhqhq-338" target="s_h71yhUyFhdzkxMhqhq-336">
          <mxGeometry relative="1" as="geometry" />
        </mxCell>
        <mxCell id="s_h71yhUyFhdzkxMhqhq-345" value="Main Site" style="text;html=1;align=center;verticalAlign=middle;whiteSpace=wrap;rounded=0;fontSize=23;" vertex="1" parent="1">
          <mxGeometry x="-390" y="740" width="110" height="30" as="geometry" />
        </mxCell>
        <mxCell id="s_h71yhUyFhdzkxMhqhq-350" style="edgeStyle=orthogonalEdgeStyle;rounded=0;orthogonalLoop=1;jettySize=auto;html=1;entryX=0.5;entryY=0;entryDx=0;entryDy=0;entryPerimeter=0;exitX=0.5;exitY=1;exitDx=0;exitDy=0;" edge="1" parent="1" source="s_h71yhUyFhdzkxMhqhq-334" target="s_h71yhUyFhdzkxMhqhq-340">
          <mxGeometry relative="1" as="geometry">
            <Array as="points">
              <mxPoint x="-640" y="210" />
            </Array>
          </mxGeometry>
        </mxCell>
        <mxCell id="s_h71yhUyFhdzkxMhqhq-351" value="New Feeds&amp;nbsp;" style="text;html=1;align=center;verticalAlign=middle;whiteSpace=wrap;rounded=0;" vertex="1" parent="1">
          <mxGeometry x="-700" y="370" width="60" height="30" as="geometry" />
        </mxCell>
        <mxCell id="s_h71yhUyFhdzkxMhqhq-357" value="" style="group" vertex="1" connectable="0" parent="1">
          <mxGeometry x="-750" y="150" width="220" height="200" as="geometry" />
        </mxCell>
        <mxCell id="s_h71yhUyFhdzkxMhqhq-334" value="" style="rounded=0;whiteSpace=wrap;html=1;container=0;" vertex="1" parent="s_h71yhUyFhdzkxMhqhq-357">
          <mxGeometry x="3" width="210" height="200" as="geometry" />
        </mxCell>
        <mxCell id="s_h71yhUyFhdzkxMhqhq-324" value="" style="rounded=0;whiteSpace=wrap;html=1;direction=south;container=0;" vertex="1" parent="s_h71yhUyFhdzkxMhqhq-357">
          <mxGeometry x="28" y="90" width="60" height="100" as="geometry" />
        </mxCell>
        <mxCell id="s_h71yhUyFhdzkxMhqhq-321" value="" style="aspect=fixed;sketch=0;html=1;dashed=0;whitespace=wrap;verticalLabelPosition=bottom;verticalAlign=top;fillColor=#2875E2;strokeColor=#ffffff;points=[[0.005,0.63,0],[0.1,0.2,0],[0.9,0.2,0],[0.5,0,0],[0.995,0.63,0],[0.72,0.99,0],[0.5,1,0],[0.28,0.99,0]];shape=mxgraph.kubernetes.icon2;prIcon=api;container=0;" vertex="1" parent="s_h71yhUyFhdzkxMhqhq-357">
          <mxGeometry x="33" y="140" width="50" height="48" as="geometry" />
        </mxCell>
        <mxCell id="s_h71yhUyFhdzkxMhqhq-323" value="Abuse.ch Threat Fox" style="text;html=1;align=center;verticalAlign=middle;whiteSpace=wrap;rounded=0;container=0;" vertex="1" parent="s_h71yhUyFhdzkxMhqhq-357">
          <mxGeometry x="28" y="100" width="60" height="30" as="geometry" />
        </mxCell>
        <mxCell id="s_h71yhUyFhdzkxMhqhq-325" value="" style="rounded=0;whiteSpace=wrap;html=1;direction=south;container=0;" vertex="1" parent="s_h71yhUyFhdzkxMhqhq-357">
          <mxGeometry x="133" y="90" width="60" height="100" as="geometry" />
        </mxCell>
        <mxCell id="s_h71yhUyFhdzkxMhqhq-326" value="" style="aspect=fixed;sketch=0;html=1;dashed=0;whitespace=wrap;verticalLabelPosition=bottom;verticalAlign=top;fillColor=#2875E2;strokeColor=#ffffff;points=[[0.005,0.63,0],[0.1,0.2,0],[0.9,0.2,0],[0.5,0,0],[0.995,0.63,0],[0.72,0.99,0],[0.5,1,0],[0.28,0.99,0]];shape=mxgraph.kubernetes.icon2;prIcon=api;container=0;" vertex="1" parent="s_h71yhUyFhdzkxMhqhq-357">
          <mxGeometry x="138" y="140" width="50" height="48" as="geometry" />
        </mxCell>
        <mxCell id="s_h71yhUyFhdzkxMhqhq-327" value="Alien Vault&lt;div&gt;OTX&lt;/div&gt;" style="text;html=1;align=center;verticalAlign=middle;whiteSpace=wrap;rounded=0;container=0;" vertex="1" parent="s_h71yhUyFhdzkxMhqhq-357">
          <mxGeometry x="133" y="100" width="60" height="30" as="geometry" />
        </mxCell>
        <mxCell id="s_h71yhUyFhdzkxMhqhq-332" value="Open Threat Intelligence Feeds" style="text;html=1;align=center;verticalAlign=middle;whiteSpace=wrap;rounded=0;fontSize=23;container=0;" vertex="1" parent="s_h71yhUyFhdzkxMhqhq-357">
          <mxGeometry y="30" width="220" height="30" as="geometry" />
        </mxCell>
        <mxCell id="s_h71yhUyFhdzkxMhqhq-360" style="edgeStyle=orthogonalEdgeStyle;rounded=0;orthogonalLoop=1;jettySize=auto;html=1;exitX=0.5;exitY=1;exitDx=0;exitDy=0;" edge="1" parent="1" source="s_h71yhUyFhdzkxMhqhq-21" target="s_h71yhUyFhdzkxMhqhq-339">
          <mxGeometry relative="1" as="geometry" />
        </mxCell>
        <mxCell id="s_h71yhUyFhdzkxMhqhq-363" value="" style="group" vertex="1" connectable="0" parent="1">
          <mxGeometry x="-50" y="40" width="810" height="570.25" as="geometry" />
        </mxCell>
        <mxCell id="s_h71yhUyFhdzkxMhqhq-316" value="" style="rounded=0;whiteSpace=wrap;html=1;movable=1;resizable=1;rotatable=1;deletable=1;editable=1;locked=0;connectable=1;container=0;" vertex="1" parent="s_h71yhUyFhdzkxMhqhq-363">
          <mxGeometry width="810" height="570.25" as="geometry" />
        </mxCell>
        <mxCell id="s_h71yhUyFhdzkxMhqhq-81" style="edgeStyle=orthogonalEdgeStyle;rounded=0;orthogonalLoop=1;jettySize=auto;html=1;exitX=0;exitY=0.25;exitDx=0;exitDy=0;entryX=0.996;entryY=0.299;entryDx=0;entryDy=0;entryPerimeter=0;" edge="1" parent="s_h71yhUyFhdzkxMhqhq-363" source="s_h71yhUyFhdzkxMhqhq-80" target="s_h71yhUyFhdzkxMhqhq-20">
          <mxGeometry relative="1" as="geometry">
            <mxPoint x="630" y="400.25" as="targetPoint" />
          </mxGeometry>
        </mxCell>
        <mxCell id="s_h71yhUyFhdzkxMhqhq-80" value="" style="rounded=0;whiteSpace=wrap;html=1;direction=south;container=0;" vertex="1" parent="s_h71yhUyFhdzkxMhqhq-363">
          <mxGeometry x="585" y="460.25" width="60" height="98" as="geometry" />
        </mxCell>
        <mxCell id="s_h71yhUyFhdzkxMhqhq-310" value="" style="rounded=0;whiteSpace=wrap;html=1;container=0;" vertex="1" parent="s_h71yhUyFhdzkxMhqhq-363">
          <mxGeometry x="10" y="440.25" width="180" height="60" as="geometry" />
        </mxCell>
        <mxCell id="s_h71yhUyFhdzkxMhqhq-71" value="" style="rounded=0;whiteSpace=wrap;html=1;direction=south;container=0;" vertex="1" parent="s_h71yhUyFhdzkxMhqhq-363">
          <mxGeometry x="731" y="470.25" width="70" height="78" as="geometry" />
        </mxCell>
        <mxCell id="s_h71yhUyFhdzkxMhqhq-68" value="" style="rounded=0;whiteSpace=wrap;html=1;direction=south;container=0;" vertex="1" parent="s_h71yhUyFhdzkxMhqhq-363">
          <mxGeometry x="728" y="197" width="70" height="90" as="geometry" />
        </mxCell>
        <mxCell id="s_h71yhUyFhdzkxMhqhq-48" style="edgeStyle=orthogonalEdgeStyle;rounded=0;orthogonalLoop=1;jettySize=auto;html=1;exitX=0.5;exitY=1;exitDx=0;exitDy=0;entryX=0.5;entryY=0;entryDx=0;entryDy=0;" edge="1" parent="s_h71yhUyFhdzkxMhqhq-363" source="s_h71yhUyFhdzkxMhqhq-41" target="s_h71yhUyFhdzkxMhqhq-21">
          <mxGeometry relative="1" as="geometry" />
        </mxCell>
        <mxCell id="s_h71yhUyFhdzkxMhqhq-41" value="" style="rounded=0;whiteSpace=wrap;html=1;direction=south;container=0;" vertex="1" parent="s_h71yhUyFhdzkxMhqhq-363">
          <mxGeometry x="218" y="91.25" width="80" height="81.25" as="geometry" />
        </mxCell>
        <mxCell id="s_h71yhUyFhdzkxMhqhq-95" value="" style="edgeStyle=orthogonalEdgeStyle;rounded=0;orthogonalLoop=1;jettySize=auto;html=1;" edge="1" parent="s_h71yhUyFhdzkxMhqhq-363" source="s_h71yhUyFhdzkxMhqhq-34" target="s_h71yhUyFhdzkxMhqhq-17">
          <mxGeometry relative="1" as="geometry" />
        </mxCell>
        <mxCell id="s_h71yhUyFhdzkxMhqhq-313" style="edgeStyle=orthogonalEdgeStyle;rounded=0;orthogonalLoop=1;jettySize=auto;html=1;exitX=0.5;exitY=0;exitDx=0;exitDy=0;entryX=1;entryY=0.5;entryDx=0;entryDy=0;" edge="1" parent="s_h71yhUyFhdzkxMhqhq-363" source="s_h71yhUyFhdzkxMhqhq-34" target="s_h71yhUyFhdzkxMhqhq-310">
          <mxGeometry relative="1" as="geometry" />
        </mxCell>
        <mxCell id="s_h71yhUyFhdzkxMhqhq-34" value="" style="rounded=0;whiteSpace=wrap;html=1;direction=west;container=0;" vertex="1" parent="s_h71yhUyFhdzkxMhqhq-363">
          <mxGeometry x="164" y="269" width="250" height="61.25" as="geometry" />
        </mxCell>
        <mxCell id="s_h71yhUyFhdzkxMhqhq-46" style="edgeStyle=orthogonalEdgeStyle;rounded=0;orthogonalLoop=1;jettySize=auto;html=1;exitX=0.5;exitY=1;exitDx=0;exitDy=0;entryX=0.5;entryY=0;entryDx=0;entryDy=0;" edge="1" parent="s_h71yhUyFhdzkxMhqhq-363" source="s_h71yhUyFhdzkxMhqhq-29" target="s_h71yhUyFhdzkxMhqhq-41">
          <mxGeometry relative="1" as="geometry" />
        </mxCell>
        <mxCell id="s_h71yhUyFhdzkxMhqhq-29" value="" style="rounded=0;whiteSpace=wrap;html=1;direction=south;container=0;" vertex="1" parent="s_h71yhUyFhdzkxMhqhq-363">
          <mxGeometry x="390" y="91.25" width="80" height="80" as="geometry" />
        </mxCell>
        <mxCell id="s_h71yhUyFhdzkxMhqhq-21" value="" style="rounded=0;whiteSpace=wrap;html=1;direction=south;container=0;" vertex="1" parent="s_h71yhUyFhdzkxMhqhq-363">
          <mxGeometry x="40" y="82.25" width="60" height="100" as="geometry" />
        </mxCell>
        <mxCell id="s_h71yhUyFhdzkxMhqhq-74" style="edgeStyle=orthogonalEdgeStyle;rounded=0;orthogonalLoop=1;jettySize=auto;html=1;exitX=0.75;exitY=0;exitDx=0;exitDy=0;entryX=1;entryY=0.5;entryDx=0;entryDy=0;" edge="1" parent="s_h71yhUyFhdzkxMhqhq-363" source="s_h71yhUyFhdzkxMhqhq-20" target="s_h71yhUyFhdzkxMhqhq-68">
          <mxGeometry relative="1" as="geometry">
            <Array as="points">
              <mxPoint x="763" y="307.25" />
            </Array>
          </mxGeometry>
        </mxCell>
        <mxCell id="s_h71yhUyFhdzkxMhqhq-20" value="" style="whiteSpace=wrap;html=1;direction=south;points=[[0,0,0,0,0],[0,0.25,0,0,0],[0,0.5,0,0,0],[0,0.75,0,0,0],[0,0.84,0,0,0],[0,1,0,0,0],[0.25,0,0,0,0],[0.25,1,0,0,0],[0.5,0,0,0,0],[0.5,1,0,0,0],[0.75,0,0,0,0],[1,0,0,0,0],[1,0.25,0,0,0],[1,0.5,0,0,0],[1,0.75,0,0,0],[1,1,0,0,0]];container=0;" vertex="1" parent="s_h71yhUyFhdzkxMhqhq-363">
          <mxGeometry x="580" y="45" width="70" height="350" as="geometry" />
        </mxCell>
        <mxCell id="s_h71yhUyFhdzkxMhqhq-5" value="" style="aspect=fixed;sketch=0;html=1;dashed=0;whitespace=wrap;verticalLabelPosition=bottom;verticalAlign=top;fillColor=#2875E2;strokeColor=#ffffff;points=[[0.005,0.63,0],[0.1,0.2,0],[0.9,0.2,0],[0.5,0,0],[0.995,0.63,0],[0.72,0.99,0],[0.5,1,0],[0.28,0.99,0]];shape=mxgraph.kubernetes.icon2;prIcon=pod;container=0;" vertex="1" parent="s_h71yhUyFhdzkxMhqhq-363">
          <mxGeometry x="590" y="213" width="50" height="48" as="geometry" />
        </mxCell>
        <mxCell id="s_h71yhUyFhdzkxMhqhq-6" value="" style="aspect=fixed;sketch=0;html=1;dashed=0;whitespace=wrap;verticalLabelPosition=bottom;verticalAlign=top;fillColor=#2875E2;strokeColor=#ffffff;points=[[0.005,0.63,0],[0.1,0.2,0],[0.9,0.2,0],[0.5,0,0],[0.995,0.63,0],[0.72,0.99,0],[0.5,1,0],[0.28,0.99,0]];shape=mxgraph.kubernetes.icon2;prIcon=pod;container=0;" vertex="1" parent="s_h71yhUyFhdzkxMhqhq-363">
          <mxGeometry x="590" y="155" width="50" height="48" as="geometry" />
        </mxCell>
        <mxCell id="s_h71yhUyFhdzkxMhqhq-7" value="" style="aspect=fixed;sketch=0;html=1;dashed=0;whitespace=wrap;verticalLabelPosition=bottom;verticalAlign=top;fillColor=#2875E2;strokeColor=#ffffff;points=[[0.005,0.63,0],[0.1,0.2,0],[0.9,0.2,0],[0.5,0,0],[0.995,0.63,0],[0.72,0.99,0],[0.5,1,0],[0.28,0.99,0]];shape=mxgraph.kubernetes.icon2;prIcon=pod;container=0;" vertex="1" parent="s_h71yhUyFhdzkxMhqhq-363">
          <mxGeometry x="590" y="95" width="50" height="48" as="geometry" />
        </mxCell>
        <mxCell id="s_h71yhUyFhdzkxMhqhq-9" value="" style="image;aspect=fixed;perimeter=ellipsePerimeter;html=1;align=center;shadow=0;dashed=0;spacingTop=3;image=img/lib/active_directory/database.svg;container=0;" vertex="1" parent="s_h71yhUyFhdzkxMhqhq-363">
          <mxGeometry x="45" y="111.25" width="50" height="37" as="geometry" />
        </mxCell>
        <mxCell id="s_h71yhUyFhdzkxMhqhq-16" value="" style="aspect=fixed;sketch=0;html=1;dashed=0;whitespace=wrap;verticalLabelPosition=bottom;verticalAlign=top;fillColor=#2875E2;strokeColor=#ffffff;points=[[0.005,0.63,0],[0.1,0.2,0],[0.9,0.2,0],[0.5,0,0],[0.995,0.63,0],[0.72,0.99,0],[0.5,1,0],[0.28,0.99,0]];shape=mxgraph.kubernetes.icon2;prIcon=pod;container=0;" vertex="1" parent="s_h71yhUyFhdzkxMhqhq-363">
          <mxGeometry x="590" y="335" width="50" height="48" as="geometry" />
        </mxCell>
        <mxCell id="s_h71yhUyFhdzkxMhqhq-17" value="" style="aspect=fixed;sketch=0;html=1;dashed=0;whitespace=wrap;verticalLabelPosition=bottom;verticalAlign=top;fillColor=#2875E2;strokeColor=#ffffff;points=[[0.005,0.63,0],[0.1,0.2,0],[0.9,0.2,0],[0.5,0,0],[0.995,0.63,0],[0.72,0.99,0],[0.5,1,0],[0.28,0.99,0]];shape=mxgraph.kubernetes.icon2;prIcon=pod;container=0;" vertex="1" parent="s_h71yhUyFhdzkxMhqhq-363">
          <mxGeometry x="590" y="275" width="50" height="48" as="geometry" />
        </mxCell>
        <mxCell id="s_h71yhUyFhdzkxMhqhq-18" value="Web scrapers" style="text;html=1;align=center;verticalAlign=middle;whiteSpace=wrap;rounded=0;container=0;" vertex="1" parent="s_h71yhUyFhdzkxMhqhq-363">
          <mxGeometry x="585" y="50.25" width="60" height="30" as="geometry" />
        </mxCell>
        <mxCell id="s_h71yhUyFhdzkxMhqhq-22" value="DataBase" style="text;html=1;align=center;verticalAlign=middle;whiteSpace=wrap;rounded=0;container=0;" vertex="1" parent="s_h71yhUyFhdzkxMhqhq-363">
          <mxGeometry x="40" y="80.25" width="60" height="30" as="geometry" />
        </mxCell>
        <mxCell id="s_h71yhUyFhdzkxMhqhq-23" value="" style="image;aspect=fixed;perimeter=ellipsePerimeter;html=1;align=center;shadow=0;dashed=0;spacingTop=3;image=img/lib/active_directory/database.svg;container=0;" vertex="1" parent="s_h71yhUyFhdzkxMhqhq-363">
          <mxGeometry x="45" y="142.25" width="54.05" height="40" as="geometry" />
        </mxCell>
        <mxCell id="s_h71yhUyFhdzkxMhqhq-27" value="" style="sketch=0;pointerEvents=1;shadow=0;dashed=0;html=1;strokeColor=none;fillColor=#505050;labelPosition=center;verticalLabelPosition=bottom;verticalAlign=top;outlineConnect=0;align=center;shape=mxgraph.office.services.excel_services;container=0;" vertex="1" parent="s_h71yhUyFhdzkxMhqhq-363">
          <mxGeometry x="400" y="113.75" width="60" height="49" as="geometry" />
        </mxCell>
        <mxCell id="s_h71yhUyFhdzkxMhqhq-30" value="DataSet" style="text;html=1;align=center;verticalAlign=middle;whiteSpace=wrap;rounded=0;container=0;" vertex="1" parent="s_h71yhUyFhdzkxMhqhq-363">
          <mxGeometry x="400" y="87.5" width="60" height="30" as="geometry" />
        </mxCell>
        <mxCell id="s_h71yhUyFhdzkxMhqhq-31" value="" style="image;aspect=fixed;html=1;points=[];align=center;fontSize=12;image=img/lib/azure2/ai_machine_learning/Serverless_Search.svg;container=0;" vertex="1" parent="s_h71yhUyFhdzkxMhqhq-363">
          <mxGeometry x="220" y="277" width="52" height="52" as="geometry" />
        </mxCell>
        <mxCell id="s_h71yhUyFhdzkxMhqhq-36" value="Search API" style="text;html=1;align=center;verticalAlign=middle;whiteSpace=wrap;rounded=0;container=0;" vertex="1" parent="s_h71yhUyFhdzkxMhqhq-363">
          <mxGeometry x="160" y="284" width="60" height="30" as="geometry" />
        </mxCell>
        <mxCell id="s_h71yhUyFhdzkxMhqhq-38" value="" style="image;aspect=fixed;html=1;points=[];align=center;fontSize=12;image=img/lib/azure2/ai_machine_learning/Serverless_Search.svg;container=0;" vertex="1" parent="s_h71yhUyFhdzkxMhqhq-363">
          <mxGeometry x="286" y="277" width="52" height="52" as="geometry" />
        </mxCell>
        <mxCell id="s_h71yhUyFhdzkxMhqhq-39" value="" style="image;aspect=fixed;html=1;points=[];align=center;fontSize=12;image=img/lib/azure2/ai_machine_learning/Serverless_Search.svg;container=0;" vertex="1" parent="s_h71yhUyFhdzkxMhqhq-363">
          <mxGeometry x="349" y="277" width="52" height="52" as="geometry" />
        </mxCell>
        <mxCell id="s_h71yhUyFhdzkxMhqhq-40" value="" style="outlineConnect=0;dashed=0;verticalLabelPosition=bottom;verticalAlign=top;align=center;html=1;shape=mxgraph.aws3.connect;fillColor=#759C3E;gradientColor=none;container=0;" vertex="1" parent="s_h71yhUyFhdzkxMhqhq-363">
          <mxGeometry x="228" y="128.5" width="60" height="39" as="geometry" />
        </mxCell>
        <mxCell id="s_h71yhUyFhdzkxMhqhq-42" value="ODM" style="text;html=1;align=center;verticalAlign=middle;whiteSpace=wrap;rounded=0;container=0;" vertex="1" parent="s_h71yhUyFhdzkxMhqhq-363">
          <mxGeometry x="228" y="93.5" width="60" height="30" as="geometry" />
        </mxCell>
        <mxCell id="s_h71yhUyFhdzkxMhqhq-45" value="Storing scraped data in dataset" style="text;html=1;align=center;verticalAlign=middle;whiteSpace=wrap;rounded=0;container=0;" vertex="1" parent="s_h71yhUyFhdzkxMhqhq-363">
          <mxGeometry x="480" y="98.5" width="90" height="30" as="geometry" />
        </mxCell>
        <mxCell id="s_h71yhUyFhdzkxMhqhq-47" value="Storing non-searchable site data" style="text;html=1;align=center;verticalAlign=middle;whiteSpace=wrap;rounded=0;container=0;" vertex="1" parent="s_h71yhUyFhdzkxMhqhq-363">
          <mxGeometry x="110" y="88.75" width="90" height="30" as="geometry" />
        </mxCell>
        <mxCell id="s_h71yhUyFhdzkxMhqhq-49" value="Clean and map tables" style="text;html=1;align=center;verticalAlign=middle;whiteSpace=wrap;rounded=0;container=0;" vertex="1" parent="s_h71yhUyFhdzkxMhqhq-363">
          <mxGeometry x="314" y="94.25" width="60" height="30" as="geometry" />
        </mxCell>
        <mxCell id="s_h71yhUyFhdzkxMhqhq-51" value="API&#39;s to scrape only search terms" style="text;html=1;align=center;verticalAlign=middle;whiteSpace=wrap;rounded=0;container=0;" vertex="1" parent="s_h71yhUyFhdzkxMhqhq-363">
          <mxGeometry x="434" y="269" width="120" height="30" as="geometry" />
        </mxCell>
        <mxCell id="s_h71yhUyFhdzkxMhqhq-55" value="Ingestion Engine" style="text;html=1;align=center;verticalAlign=middle;whiteSpace=wrap;rounded=0;fontSize=23;fontStyle=0;container=0;" vertex="1" parent="s_h71yhUyFhdzkxMhqhq-363">
          <mxGeometry x="358" y="15" width="60" height="30" as="geometry" />
        </mxCell>
        <mxCell id="s_h71yhUyFhdzkxMhqhq-63" value="" style="sketch=0;pointerEvents=1;shadow=0;dashed=0;html=1;strokeColor=none;fillColor=#505050;labelPosition=center;verticalLabelPosition=bottom;verticalAlign=top;outlineConnect=0;align=center;shape=mxgraph.office.services.online_hosted_services;container=0;" vertex="1" parent="s_h71yhUyFhdzkxMhqhq-363">
          <mxGeometry x="738" y="230.25" width="56" height="52" as="geometry" />
        </mxCell>
        <mxCell id="s_h71yhUyFhdzkxMhqhq-65" value="ClearNet" style="text;html=1;align=center;verticalAlign=middle;whiteSpace=wrap;rounded=0;container=0;" vertex="1" parent="s_h71yhUyFhdzkxMhqhq-363">
          <mxGeometry x="734" y="200.25" width="60" height="30" as="geometry" />
        </mxCell>
        <mxCell id="s_h71yhUyFhdzkxMhqhq-66" value="" style="shape=image;html=1;verticalAlign=top;verticalLabelPosition=bottom;labelBackgroundColor=#ffffff;imageAspect=0;aspect=fixed;image=https://cdn0.iconfinder.com/data/icons/just-drivers/128/networks_G.png;container=0;" vertex="1" parent="s_h71yhUyFhdzkxMhqhq-363">
          <mxGeometry x="737" y="490.25" width="58" height="58" as="geometry" />
        </mxCell>
        <mxCell id="s_h71yhUyFhdzkxMhqhq-69" style="edgeStyle=orthogonalEdgeStyle;rounded=0;orthogonalLoop=1;jettySize=auto;html=1;entryX=0.564;entryY=0.012;entryDx=0;entryDy=0;entryPerimeter=0;" edge="1" parent="s_h71yhUyFhdzkxMhqhq-363" source="s_h71yhUyFhdzkxMhqhq-68" target="s_h71yhUyFhdzkxMhqhq-20">
          <mxGeometry relative="1" as="geometry" />
        </mxCell>
        <mxCell id="s_h71yhUyFhdzkxMhqhq-70" value="Dark Web" style="text;html=1;align=center;verticalAlign=middle;whiteSpace=wrap;rounded=0;container=0;" vertex="1" parent="s_h71yhUyFhdzkxMhqhq-363">
          <mxGeometry x="736" y="470.25" width="60" height="30" as="geometry" />
        </mxCell>
        <mxCell id="s_h71yhUyFhdzkxMhqhq-78" value="" style="aspect=fixed;sketch=0;html=1;dashed=0;whitespace=wrap;verticalLabelPosition=bottom;verticalAlign=top;fillColor=#2875E2;strokeColor=#ffffff;points=[[0.005,0.63,0],[0.1,0.2,0],[0.9,0.2,0],[0.5,0,0],[0.995,0.63,0],[0.72,0.99,0],[0.5,1,0],[0.28,0.99,0]];shape=mxgraph.kubernetes.icon2;prIcon=hpa;container=0;" vertex="1" parent="s_h71yhUyFhdzkxMhqhq-363">
          <mxGeometry x="590" y="505.25" width="50" height="48" as="geometry" />
        </mxCell>
        <mxCell id="s_h71yhUyFhdzkxMhqhq-83" style="edgeStyle=orthogonalEdgeStyle;rounded=0;orthogonalLoop=1;jettySize=auto;html=1;exitX=1;exitY=0.5;exitDx=0;exitDy=0;" edge="1" parent="s_h71yhUyFhdzkxMhqhq-363" source="s_h71yhUyFhdzkxMhqhq-79">
          <mxGeometry relative="1" as="geometry">
            <mxPoint x="730" y="485.05952380952374" as="targetPoint" />
          </mxGeometry>
        </mxCell>
        <mxCell id="s_h71yhUyFhdzkxMhqhq-79" value="Tor Sock Server" style="text;html=1;align=center;verticalAlign=middle;whiteSpace=wrap;rounded=0;container=0;" vertex="1" parent="s_h71yhUyFhdzkxMhqhq-363">
          <mxGeometry x="585" y="470.25" width="60" height="30" as="geometry" />
        </mxCell>
        <mxCell id="s_h71yhUyFhdzkxMhqhq-82" style="edgeStyle=orthogonalEdgeStyle;rounded=0;orthogonalLoop=1;jettySize=auto;html=1;exitX=1;exitY=0.75;exitDx=0;exitDy=0;entryX=0.005;entryY=0.797;entryDx=0;entryDy=0;entryPerimeter=0;" edge="1" parent="s_h71yhUyFhdzkxMhqhq-363" source="s_h71yhUyFhdzkxMhqhq-20" target="s_h71yhUyFhdzkxMhqhq-80">
          <mxGeometry relative="1" as="geometry" />
        </mxCell>
        <mxCell id="s_h71yhUyFhdzkxMhqhq-84" style="edgeStyle=orthogonalEdgeStyle;rounded=0;orthogonalLoop=1;jettySize=auto;html=1;exitX=0.75;exitY=1;exitDx=0;exitDy=0;entryX=0.7;entryY=-0.005;entryDx=0;entryDy=0;entryPerimeter=0;" edge="1" parent="s_h71yhUyFhdzkxMhqhq-363" source="s_h71yhUyFhdzkxMhqhq-71" target="s_h71yhUyFhdzkxMhqhq-80">
          <mxGeometry relative="1" as="geometry" />
        </mxCell>
        <mxCell id="s_h71yhUyFhdzkxMhqhq-94" style="edgeStyle=orthogonalEdgeStyle;rounded=0;orthogonalLoop=1;jettySize=auto;html=1;exitX=0.25;exitY=1;exitDx=0;exitDy=0;entryX=0.526;entryY=-0.037;entryDx=0;entryDy=0;entryPerimeter=0;" edge="1" parent="s_h71yhUyFhdzkxMhqhq-363" source="s_h71yhUyFhdzkxMhqhq-20" target="s_h71yhUyFhdzkxMhqhq-29">
          <mxGeometry relative="1" as="geometry" />
        </mxCell>
        <mxCell id="s_h71yhUyFhdzkxMhqhq-307" value="" style="sketch=0;points=[[0,0,0],[0.25,0,0],[0.5,0,0],[0.75,0,0],[1,0,0],[0,1,0],[0.25,1,0],[0.5,1,0],[0.75,1,0],[1,1,0],[0,0.25,0],[0,0.5,0],[0,0.75,0],[1,0.25,0],[1,0.5,0],[1,0.75,0]];outlineConnect=0;fontColor=#232F3E;fillColor=#8C4FFF;strokeColor=#ffffff;dashed=0;verticalLabelPosition=bottom;verticalAlign=top;align=center;html=1;fontSize=12;fontStyle=0;aspect=fixed;shape=mxgraph.aws4.resourceIcon;resIcon=mxgraph.aws4.entity_resolution;container=0;" vertex="1" parent="s_h71yhUyFhdzkxMhqhq-363">
          <mxGeometry x="130" y="446.25" width="48" height="48" as="geometry" />
        </mxCell>
        <mxCell id="s_h71yhUyFhdzkxMhqhq-308" value="User Relational Mapping" style="text;html=1;align=center;verticalAlign=middle;whiteSpace=wrap;rounded=0;container=0;" vertex="1" parent="s_h71yhUyFhdzkxMhqhq-363">
          <mxGeometry x="25" y="455.25" width="100" height="30" as="geometry" />
        </mxCell>
        <mxCell id="s_h71yhUyFhdzkxMhqhq-311" style="edgeStyle=orthogonalEdgeStyle;rounded=0;orthogonalLoop=1;jettySize=auto;html=1;entryX=0.344;entryY=-0.033;entryDx=0;entryDy=0;entryPerimeter=0;" edge="1" parent="s_h71yhUyFhdzkxMhqhq-363" source="s_h71yhUyFhdzkxMhqhq-23" target="s_h71yhUyFhdzkxMhqhq-310">
          <mxGeometry relative="1" as="geometry" />
        </mxCell>
        <mxCell id="s_h71yhUyFhdzkxMhqhq-314" value="Find User Ranking" style="text;html=1;align=center;verticalAlign=middle;whiteSpace=wrap;rounded=0;container=0;" vertex="1" parent="s_h71yhUyFhdzkxMhqhq-363">
          <mxGeometry x="220" y="360" width="60" height="30" as="geometry" />
        </mxCell>
        <mxCell id="s_h71yhUyFhdzkxMhqhq-315" value="Find User Relations (DoxBin)" style="text;html=1;align=center;verticalAlign=middle;whiteSpace=wrap;rounded=0;container=0;" vertex="1" parent="s_h71yhUyFhdzkxMhqhq-363">
          <mxGeometry x="70" y="205" width="120" height="30" as="geometry" />
        </mxCell>
        <mxCell id="s_h71yhUyFhdzkxMhqhq-366" value="Search API Results" style="text;html=1;align=center;verticalAlign=middle;whiteSpace=wrap;rounded=0;" vertex="1" parent="s_h71yhUyFhdzkxMhqhq-363">
          <mxGeometry x="360" y="430.25" width="90" height="30" as="geometry" />
        </mxCell>
        <mxCell id="s_h71yhUyFhdzkxMhqhq-364" style="edgeStyle=orthogonalEdgeStyle;rounded=0;orthogonalLoop=1;jettySize=auto;html=1;exitX=0.25;exitY=0;exitDx=0;exitDy=0;entryX=1;entryY=0.5;entryDx=0;entryDy=0;entryPerimeter=0;" edge="1" parent="1" source="s_h71yhUyFhdzkxMhqhq-34" target="s_h71yhUyFhdzkxMhqhq-336">
          <mxGeometry relative="1" as="geometry" />
        </mxCell>
        <mxCell id="s_h71yhUyFhdzkxMhqhq-365" value="Old Posts from Database" style="text;html=1;align=center;verticalAlign=middle;whiteSpace=wrap;rounded=0;" vertex="1" parent="1">
          <mxGeometry x="-413" y="180" width="100" height="30" as="geometry" />
        </mxCell>
      </root>
    </mxGraphModel>
  </diagram>
</mxfile>
